<svg width="24" height="24" viewBox="0 0 24 24" fill="none" xmlns="http://www.w3.org/2000/svg">
<path d="M23.8535 23.1465L16.551 15.844C18.0678 14.1599 19 11.9395 19 9.49997C19 4.26173 14.7383 0 9.50002 0C4.26173 0 0 4.26173 0 9.50002C0 14.7383 4.26173 19 9.50002 19C11.9395 19 14.1599 18.0678 15.844 16.551L23.1465 23.8535C23.2441 23.9512 23.3721 24 23.5 24C23.628 24 23.7559 23.9512 23.8536 23.8535C24.0488 23.6582 24.0488 23.3418 23.8535 23.1465ZM9.50002 18C4.8135 18 1.00003 14.187 1.00003 9.50002C1.00003 4.81303 4.8135 0.999984 9.50002 0.999984C14.1865 0.999984 18 4.81298 18 9.50002C18 14.187 14.1865 18 9.50002 18Z" fill="#3F8483"/>
</svg>
